<?xml version="1.0" encoding="UTF-8"?>
<!-- Generator: Adobe Illustrator 21.0.0, SVG Export Plug-In . SVG Version: 6.00 Build 0)  -->
<svg xmlns="http://www.w3.org/2000/svg" xmlns:xlink="http://www.w3.org/1999/xlink" id="DataPrep_x5F_Redo_x5F_White" x="0px" y="0px" width="20px" height="20px" viewBox="0 0 20 20" style="enable-background:new 0 0 20 20;" xml:space="preserve">
<path id="Arrow_8_" style="fill-rule:evenodd;clip-rule:evenodd;fill:#FFFFFF;" d="M3,9h11.6l-4.3-4.3c-0.4-0.4-0.4-1,0-1.4  s1-0.4,1.4,0l6,6c0,0,0,0,0,0C17.9,9.5,18,9.7,18,10c0,0.3-0.1,0.5-0.3,0.7c0,0,0,0,0,0l-6,6c-0.4,0.4-1,0.4-1.4,0s-0.4-1,0-1.4  l4.3-4.3H3c-0.5,0-1-0.5-1-1S2.5,9,3,9z"/>
</svg>