<?xml version="1.0" encoding="UTF-8"?>
<!-- Generator: Adobe Illustrator 23.0.1, SVG Export Plug-In . SVG Version: 6.00 Build 0)  -->
<svg xmlns="http://www.w3.org/2000/svg" xmlns:xlink="http://www.w3.org/1999/xlink" x="0px" y="0px" width="32px" height="32px" viewBox="0 0 32 32" style="enable-background:new 0 0 32 32;" xml:space="preserve">
<style type="text/css">
	.st0{fill-rule:evenodd;clip-rule:evenodd;fill:#666666;}
</style>
<path id="Magnifier" class="st0" d="M25.854,24.147l-4.568-4.568C22.351,18.351,23,16.753,23,15c0-3.866-3.134-7-7-7s-7,3.134-7,7  c0,3.866,3.134,7,7,7c1.753,0,3.351-0.649,4.579-1.714l4.568,4.568c0.194,0.194,0.513,0.194,0.707,0  C26.049,24.66,26.049,24.341,25.854,24.147z M16.027,21.004c-3.301,0-5.977-2.676-5.977-5.977s2.676-5.977,5.977-5.977  s5.977,2.676,5.977,5.977S19.328,21.004,16.027,21.004z"></path>
</svg>
