<?xml version="1.0" encoding="UTF-8"?>
<!-- Generator: Adobe Illustrator 23.0.0, SVG Export Plug-In . SVG Version: 6.00 Build 0)  -->
<svg xmlns="http://www.w3.org/2000/svg" xmlns:xlink="http://www.w3.org/1999/xlink" id="Layer_1" x="0px" y="0px" height="20px" width="20px" viewBox="0 0 20 20" style="enable-background:new 0 0 20 20;" xml:space="preserve">
<style type="text/css">
	.st0{fill:#4F4F4F;}
</style>
<g id="DS_4_">
	<g>
		<path id="Can_4_" class="st0" d="M5,15c0,1.7,2.5,3,5.5,3s5.5-1.3,5.5-3V6c0-1.7-2.5-3-5.5-3S5,4.3,5,6V15z M6,7.7    C7,8.5,8.6,9,10.5,9S14,8.5,15,7.7V15c0,1.1-2,2-4.5,2S6,16.1,6,15V7.7z M10.5,8C8,8,6,7.1,6,6s2-2,4.5-2S15,4.9,15,6S13,8,10.5,8    z"></path>
	</g>
</g>
</svg>
