<?xml version="1.0" encoding="UTF-8"?>
<svg xmlns="http://www.w3.org/2000/svg" width="18" height="18" viewBox="0 0 18 18">
  <path fill="#666" fill-rule="evenodd" d="M14,1 C14.5107143,1 14.9352041,1.3880102 14.9932398,1.88380102 L15,2 L15,16 C15,16.5107143 14.6119898,16.9352041 14.116199,16.9932398 L14,17 L5,17 C4.48928571,17 4.06479592,16.6119898 4.0067602,16.116199 L4,16 L4,2 C4,1.48928571 4.3880102,1.06479592 4.88380102,1.0067602 L5,1 L14,1 Z M14,2 L5,2 L5,16 L14,16 L14,2 Z M9.4998,13.7 C9.9418,13.7 10.2998,14.059 10.2998,14.5 C10.2998,14.941 9.9418,15.3 9.4998,15.3 C9.0588,15.3 8.6998,14.941 8.6998,14.5 C8.6998,14.059 9.0588,13.7 9.4998,13.7 Z"/>
</svg>